<svg width="40" height="40" viewBox="0 0 40 40" fill="none" xmlns="http://www.w3.org/2000/svg">
<circle cx="20" cy="20" r="19.5" fill="white" stroke="#6B7FD7"/>
<path d="M21.292 26.9091H19.7451V18.8847C19.7451 18.6328 19.7451 18.3632 19.7451 18.0761C19.751 17.789 19.7568 17.5048 19.7627 17.2236C19.7744 16.9365 19.7832 16.664 19.7891 16.4062C19.8008 16.1425 19.8096 15.9111 19.8154 15.7119C19.7158 15.8173 19.6279 15.9081 19.5518 15.9843C19.4756 16.0605 19.3965 16.1337 19.3145 16.204C19.2383 16.2744 19.1562 16.3505 19.0684 16.4326C18.9805 16.5087 18.875 16.5995 18.752 16.705L17.4512 17.7685L16.6074 16.6874L19.9736 14.0595H21.292V26.9091Z" fill="#6B7FD7"/>
</svg>
