<svg width="40" height="40" viewBox="0 0 40 40" fill="none" xmlns="http://www.w3.org/2000/svg">
<circle cx="20" cy="20" r="19.5" fill="white" stroke="#6B7FD7"/>
<path d="M23.9023 26.9091H15.8867V25.538L18.9629 22.1894C19.4023 21.7148 19.7949 21.2812 20.1406 20.8886C20.4863 20.496 20.7793 20.1122 21.0195 19.7372C21.2656 19.3622 21.4531 18.9872 21.582 18.6122C21.7109 18.2314 21.7754 17.8183 21.7754 17.373C21.7754 17.0273 21.7256 16.7226 21.626 16.4589C21.5264 16.1953 21.3828 15.9726 21.1953 15.791C21.0137 15.6035 20.7969 15.4628 20.5449 15.3691C20.293 15.2753 20.0117 15.2285 19.7012 15.2285C19.1445 15.2285 18.6406 15.3427 18.1895 15.5712C17.7441 15.7939 17.3193 16.081 16.915 16.4326L16.0186 15.3867C16.2529 15.1757 16.5049 14.9794 16.7744 14.7978C17.0439 14.6103 17.334 14.4492 17.6445 14.3144C17.9551 14.1796 18.2832 14.0742 18.6289 13.998C18.9746 13.916 19.3379 13.8749 19.7187 13.8749C20.2812 13.8749 20.7881 13.954 21.2393 14.1122C21.6963 14.2704 22.083 14.499 22.3994 14.7978C22.7158 15.0908 22.959 15.4511 23.1289 15.8788C23.3047 16.3007 23.3926 16.7783 23.3926 17.3115C23.3926 17.8095 23.3135 18.2841 23.1553 18.7353C23.0029 19.1865 22.7891 19.6318 22.5137 20.0712C22.2441 20.5048 21.9189 20.9413 21.5381 21.3808C21.1631 21.8203 20.7559 22.2773 20.3164 22.7519L17.8467 25.3798V25.4501H23.9023V26.9091Z" fill="#6B7FD7"/>
</svg>
