<svg width="40" height="40" viewBox="0 0 40 40" fill="none" xmlns="http://www.w3.org/2000/svg">
<circle cx="20" cy="20" r="19.5" fill="white" stroke="#6B7FD7"/>
<path d="M23.4893 17.0654C23.4893 17.4931 23.4219 17.8828 23.2871 18.2343C23.1523 18.5859 22.9619 18.8906 22.7158 19.1484C22.4756 19.4062 22.1855 19.6201 21.8457 19.79C21.5059 19.954 21.1279 20.0712 20.7119 20.1415V20.1943C21.749 20.3232 22.5371 20.6542 23.0762 21.1874C23.6152 21.7148 23.8848 22.4033 23.8848 23.2529C23.8848 23.8154 23.7881 24.331 23.5947 24.7997C23.4072 25.2685 23.1201 25.6728 22.7334 26.0126C22.3467 26.3525 21.8574 26.6161 21.2656 26.8036C20.6738 26.9911 19.9736 27.0849 19.165 27.0849C18.5264 27.0849 17.9229 27.0351 17.3545 26.9355C16.792 26.8359 16.2617 26.6542 15.7637 26.3906V24.8964C16.2734 25.166 16.8242 25.374 17.416 25.5204C18.0137 25.6669 18.585 25.7402 19.1299 25.7402C19.6689 25.7402 20.1348 25.6816 20.5273 25.5644C20.9199 25.4472 21.2422 25.2802 21.4941 25.0634C21.752 24.8466 21.9395 24.58 22.0566 24.2636C22.1797 23.9472 22.2412 23.5927 22.2412 23.2001C22.2412 22.8017 22.1621 22.4619 22.0039 22.1806C21.8516 21.8935 21.6318 21.6591 21.3447 21.4775C21.0576 21.29 20.7061 21.1523 20.29 21.0644C19.8799 20.9765 19.4141 20.9326 18.8926 20.9326H17.7236V19.6054H18.8926C19.3672 19.6054 19.7891 19.5468 20.1582 19.4296C20.5273 19.3124 20.835 19.1454 21.0811 18.9286C21.333 18.7119 21.5234 18.454 21.6523 18.1552C21.7812 17.8564 21.8457 17.5283 21.8457 17.1708C21.8457 16.8661 21.793 16.5937 21.6875 16.3535C21.582 16.1132 21.4326 15.9111 21.2393 15.747C21.0459 15.5771 20.8145 15.4482 20.5449 15.3603C20.2754 15.2724 19.9766 15.2285 19.6484 15.2285C19.0215 15.2285 18.4678 15.3281 17.9873 15.5273C17.5127 15.7206 17.0586 15.9755 16.625 16.2919L15.8164 15.1933C16.0391 15.0117 16.2852 14.8417 16.5547 14.6835C16.8301 14.5253 17.1289 14.3876 17.4512 14.2704C17.7734 14.1474 18.1162 14.0507 18.4795 13.9804C18.8486 13.9101 19.2383 13.8749 19.6484 13.8749C20.2812 13.8749 20.835 13.954 21.3096 14.1122C21.79 14.2704 22.1914 14.4931 22.5137 14.7802C22.8359 15.0615 23.0791 15.3984 23.2432 15.791C23.4072 16.1777 23.4893 16.6025 23.4893 17.0654Z" fill="#6B7FD7"/>
</svg>
