<svg width="40" height="40" viewBox="0 0 40 40" fill="none" xmlns="http://www.w3.org/2000/svg">
<circle cx="20" cy="20" r="19.5" fill="white" stroke="#6B7FD7"/>
<path d="M19.833 19.0253C20.4131 19.0253 20.9521 19.1073 21.4502 19.2714C21.9541 19.4296 22.3906 19.6669 22.7598 19.9833C23.1348 20.2997 23.4277 20.6923 23.6387 21.161C23.8496 21.6298 23.9551 22.1718 23.9551 22.787C23.9551 23.455 23.8555 24.0555 23.6562 24.5887C23.457 25.1219 23.1611 25.5731 22.7686 25.9423C22.376 26.3114 21.8896 26.5956 21.3096 26.7948C20.7354 26.9882 20.0732 27.0848 19.3232 27.0848C19.0244 27.0848 18.7285 27.0702 18.4355 27.0409C18.1484 27.0116 17.8701 26.9677 17.6006 26.9091C17.3369 26.8563 17.085 26.786 16.8447 26.6981C16.6045 26.6102 16.3877 26.5077 16.1943 26.3905V24.8788C16.3877 25.0135 16.6133 25.1337 16.8711 25.2391C17.1348 25.3446 17.4102 25.4325 17.6973 25.5028C17.9844 25.5731 18.2715 25.6288 18.5586 25.6698C18.8516 25.705 19.1211 25.7225 19.3672 25.7225C19.8301 25.7225 20.2432 25.6698 20.6064 25.5643C20.9697 25.453 21.2773 25.2831 21.5293 25.0546C21.7812 24.826 21.9746 24.5389 22.1094 24.1932C22.2441 23.8475 22.3115 23.4374 22.3115 22.9628C22.3115 22.1249 22.0537 21.4862 21.5381 21.0468C21.0225 20.6014 20.2725 20.3788 19.2881 20.3788C19.1299 20.3788 18.957 20.3876 18.7695 20.4052C18.5879 20.4169 18.4033 20.4344 18.2158 20.4579C18.0342 20.4813 17.8584 20.5077 17.6885 20.537C17.5244 20.5604 17.3809 20.5839 17.2578 20.6073L16.4668 20.1063L16.9502 14.0594H23.0146V15.5184H18.3389L17.9961 19.201C18.1836 19.1659 18.4297 19.1278 18.7344 19.0868C19.0449 19.0458 19.4111 19.0253 19.833 19.0253Z" fill="#6B7FD7"/>
</svg>
