<svg width="24" height="18" viewBox="0 0 24 18" fill="none" xmlns="http://www.w3.org/2000/svg">
<path d="M23.3351 5.94375C23.5163 5.79844 23.7857 5.93437 23.7857 6.16406V15.75C23.7857 16.9922 22.7869 18 21.5558 18H2.22991C0.998814 18 0 16.9922 0 15.75V6.16875C0 5.93438 0.264802 5.80312 0.450628 5.94844C1.49125 6.76406 2.87101 7.8 7.60957 11.2734C8.5898 11.9953 10.2437 13.5141 11.8929 13.5047C13.5514 13.5188 15.2377 11.9672 16.1808 11.2734C20.9193 7.8 22.2945 6.75938 23.3351 5.94375ZM11.8929 12C12.9706 12.0188 14.5223 10.6313 15.3028 10.0594C21.4675 5.54531 21.9367 5.15156 23.3583 4.02656C23.6278 3.81562 23.7857 3.4875 23.7857 3.14062V2.25C23.7857 1.00781 22.7869 0 21.5558 0H2.22991C0.998814 0 0 1.00781 0 2.25V3.14062C0 3.4875 0.157952 3.81094 0.4274 4.02656C1.84897 5.14687 2.31818 5.54531 8.48295 10.0594C9.26342 10.6313 10.8151 12.0188 11.8929 12Z" fill="#1E76B8"/>
</svg>
