<svg width="121" height="37" viewBox="0 0 121 37" fill="none" xmlns="http://www.w3.org/2000/svg">
<path d="M31.0156 22H24.4375V10.5781H31.0156V12.5625H26.8594V15.0703H30.7266V17.0547H26.8594V20H31.0156V22ZM41.2812 22H38.8984V16.8984C38.8984 16.2682 38.7865 15.7969 38.5625 15.4844C38.3385 15.1667 37.9818 15.0078 37.4922 15.0078C36.8255 15.0078 36.3438 15.2318 36.0469 15.6797C35.75 16.1224 35.6016 16.8594 35.6016 17.8906V22H33.2188V13.2656H35.0391L35.3594 14.3828H35.4922C35.7578 13.9609 36.1224 13.6432 36.5859 13.4297C37.0547 13.2109 37.5859 13.1016 38.1797 13.1016C39.1953 13.1016 39.9661 13.3776 40.4922 13.9297C41.0182 14.4766 41.2812 15.2682 41.2812 16.3047V22ZM47.3516 20.2891C47.9922 20.2891 48.4505 20.1068 48.7266 19.7422C49.0026 19.3724 49.1406 18.776 49.1406 17.9531V17.6641C49.1406 16.7318 48.9948 16.0625 48.7031 15.6562C48.4167 15.2448 47.9531 15.0391 47.3125 15.0391C46.1927 15.0391 45.6328 15.9193 45.6328 17.6797C45.6328 18.5547 45.7708 19.2083 46.0469 19.6406C46.3281 20.0729 46.763 20.2891 47.3516 20.2891ZM51.3672 22.0156C51.3672 23.2708 51 24.2214 50.2656 24.8672C49.5365 25.5182 48.4479 25.8438 47 25.8438C45.724 25.8438 44.6354 25.6719 43.7344 25.3281V23.4219C44.7917 23.8698 45.9271 24.0938 47.1406 24.0938C48.3646 24.0938 48.9766 23.4323 48.9766 22.1094V21.9375L49.0469 20.8672H48.9766C48.4193 21.7266 47.5938 22.1562 46.5 22.1562C45.4531 22.1562 44.6406 21.7526 44.0625 20.9453C43.4896 20.138 43.2031 19.0391 43.2031 17.6484C43.2031 16.2161 43.5 15.1016 44.0938 14.3047C44.6927 13.5026 45.5156 13.1016 46.5625 13.1016C47.6354 13.1016 48.4792 13.5286 49.0938 14.3828H49.1562L49.3516 13.2656H51.3672V22.0156ZM56.2422 22H53.8594V9.84375H56.2422V22ZM58.6484 11.0078C58.6484 10.2318 59.0807 9.84375 59.9453 9.84375C60.8099 9.84375 61.2422 10.2318 61.2422 11.0078C61.2422 11.3776 61.1328 11.6667 60.9141 11.875C60.7005 12.0781 60.3776 12.1797 59.9453 12.1797C59.0807 12.1797 58.6484 11.7891 58.6484 11.0078ZM61.1328 22H58.75V13.2656H61.1328V22ZM69.7344 19.4062C69.7344 20.3021 69.4219 20.9844 68.7969 21.4531C68.1771 21.9219 67.2474 22.1562 66.0078 22.1562C65.3724 22.1562 64.8307 22.112 64.3828 22.0234C63.9349 21.9401 63.5156 21.8151 63.125 21.6484V19.6797C63.5677 19.888 64.0651 20.0625 64.6172 20.2031C65.1745 20.3438 65.6641 20.4141 66.0859 20.4141C66.9505 20.4141 67.3828 20.1641 67.3828 19.6641C67.3828 19.4766 67.3255 19.3255 67.2109 19.2109C67.0964 19.0911 66.8984 18.9583 66.6172 18.8125C66.3359 18.6615 65.9609 18.487 65.4922 18.2891C64.8203 18.0078 64.3255 17.7474 64.0078 17.5078C63.6953 17.2682 63.4661 16.9948 63.3203 16.6875C63.1797 16.375 63.1094 15.9922 63.1094 15.5391C63.1094 14.763 63.4089 14.1641 64.0078 13.7422C64.612 13.3151 65.4661 13.1016 66.5703 13.1016C67.6224 13.1016 68.6458 13.3307 69.6406 13.7891L68.9219 15.5078C68.4844 15.3203 68.0755 15.1667 67.6953 15.0469C67.3151 14.9271 66.9271 14.8672 66.5312 14.8672C65.8281 14.8672 65.4766 15.0573 65.4766 15.4375C65.4766 15.651 65.5885 15.8359 65.8125 15.9922C66.0417 16.1484 66.5391 16.3802 67.3047 16.6875C67.987 16.9635 68.487 17.2214 68.8047 17.4609C69.1224 17.7005 69.3568 17.9766 69.5078 18.2891C69.6589 18.6016 69.7344 18.974 69.7344 19.4062ZM79.6562 22H77.2734V16.8984C77.2734 15.638 76.8047 15.0078 75.8672 15.0078C75.2005 15.0078 74.7188 15.2344 74.4219 15.6875C74.125 16.1406 73.9766 16.875 73.9766 17.8906V22H71.5938V9.84375H73.9766V12.3203C73.9766 12.513 73.9583 12.9661 73.9219 13.6797L73.8672 14.3828H73.9922C74.5234 13.5286 75.3672 13.1016 76.5234 13.1016C77.5495 13.1016 78.3281 13.3776 78.8594 13.9297C79.3906 14.4818 79.6562 15.2734 79.6562 16.3047V22Z" fill="#1E76B8"/>
<path d="M91.7734 16.1797C91.7734 18.0599 91.237 19.5 90.1641 20.5C89.0964 21.5 87.5521 22 85.5312 22H82.2969V10.5781H85.8828C87.7474 10.5781 89.1953 11.0703 90.2266 12.0547C91.2578 13.0391 91.7734 14.4141 91.7734 16.1797ZM89.2578 16.2422C89.2578 13.7891 88.1745 12.5625 86.0078 12.5625H84.7188V20H85.7578C88.0911 20 89.2578 18.7474 89.2578 16.2422ZM95.8516 17.6172C95.8516 18.4818 95.9922 19.1354 96.2734 19.5781C96.5599 20.0208 97.0234 20.2422 97.6641 20.2422C98.2995 20.2422 98.7552 20.0234 99.0312 19.5859C99.3125 19.1432 99.4531 18.487 99.4531 17.6172C99.4531 16.7526 99.3125 16.1042 99.0312 15.6719C98.75 15.2396 98.2891 15.0234 97.6484 15.0234C97.013 15.0234 96.5547 15.2396 96.2734 15.6719C95.9922 16.099 95.8516 16.7474 95.8516 17.6172ZM101.891 17.6172C101.891 19.0391 101.516 20.151 100.766 20.9531C100.016 21.7552 98.9714 22.1562 97.6328 22.1562C96.7943 22.1562 96.0547 21.974 95.4141 21.6094C94.7734 21.2396 94.2812 20.7109 93.9375 20.0234C93.5938 19.3359 93.4219 18.5339 93.4219 17.6172C93.4219 16.1901 93.7943 15.0807 94.5391 14.2891C95.2839 13.4974 96.3307 13.1016 97.6797 13.1016C98.5182 13.1016 99.2578 13.2839 99.8984 13.6484C100.539 14.013 101.031 14.5365 101.375 15.2188C101.719 15.901 101.891 16.7005 101.891 17.6172ZM105.758 17.6172C105.758 18.4818 105.898 19.1354 106.18 19.5781C106.466 20.0208 106.93 20.2422 107.57 20.2422C108.206 20.2422 108.661 20.0234 108.938 19.5859C109.219 19.1432 109.359 18.487 109.359 17.6172C109.359 16.7526 109.219 16.1042 108.938 15.6719C108.656 15.2396 108.195 15.0234 107.555 15.0234C106.919 15.0234 106.461 15.2396 106.18 15.6719C105.898 16.099 105.758 16.7474 105.758 17.6172ZM111.797 17.6172C111.797 19.0391 111.422 20.151 110.672 20.9531C109.922 21.7552 108.878 22.1562 107.539 22.1562C106.701 22.1562 105.961 21.974 105.32 21.6094C104.68 21.2396 104.188 20.7109 103.844 20.0234C103.5 19.3359 103.328 18.5339 103.328 17.6172C103.328 16.1901 103.701 15.0807 104.445 14.2891C105.19 13.4974 106.237 13.1016 107.586 13.1016C108.424 13.1016 109.164 13.2839 109.805 13.6484C110.445 14.013 110.938 14.5365 111.281 15.2188C111.625 15.901 111.797 16.7005 111.797 17.6172ZM118.641 13.1016C118.964 13.1016 119.232 13.125 119.445 13.1719L119.266 15.4062C119.073 15.3542 118.839 15.3281 118.562 15.3281C117.802 15.3281 117.208 15.5234 116.781 15.9141C116.359 16.3047 116.148 16.8516 116.148 17.5547V22H113.766V13.2656H115.57L115.922 14.7344H116.039C116.31 14.2448 116.674 13.8516 117.133 13.5547C117.596 13.2526 118.099 13.1016 118.641 13.1016Z" fill="#000100"/>
<g clip-path="url(#clip0)">
<path d="M5.385 26.7869C5.50456 26.8805 5.64392 26.9455 5.79244 26.9771C5.94096 27.0086 6.09472 27.0058 6.242 26.9689L14.242 24.9689C14.4585 24.9151 14.6508 24.7903 14.7882 24.6145C14.9255 24.4387 15.0001 24.222 15 23.9989V9.99889C14.9999 9.77583 14.9253 9.55919 14.788 9.38343C14.6506 9.20767 14.4584 9.08287 14.242 9.02889L6.242 7.02889C6.09466 6.99274 5.94105 6.99049 5.79271 7.02229C5.64437 7.0541 5.50519 7.11914 5.38562 7.21252C5.26606 7.30589 5.16924 7.42518 5.10244 7.56139C5.03565 7.6976 5.00062 7.84719 5 7.99889V8.99889H1C0.734784 8.99889 0.48043 9.10425 0.292893 9.29179C0.105357 9.47932 0 9.73368 0 9.99889V23.9989C0 24.2641 0.105357 24.5185 0.292893 24.706C0.48043 24.8935 0.734784 24.9989 1 24.9989H5V25.9989C5 26.3069 5.142 26.5979 5.385 26.7869ZM7 9.27989L13 10.7799V23.2179L7 24.7179V9.27989ZM2 22.9989V10.9989H5V22.9989H2Z" fill="#1E76B8"/>
<path d="M16.242 18.1583C16.688 18.0463 17 17.6463 17 17.1873V16.8103C16.9999 16.5451 16.8944 16.2908 16.7068 16.1033C16.5191 15.9159 16.2647 15.8107 15.9995 15.8108C15.7343 15.8109 15.48 15.9164 15.2925 16.104C15.1051 16.2917 14.9999 16.5461 15 16.8113V17.1883C15 17.3402 15.0347 17.4901 15.1013 17.6266C15.1679 17.7631 15.2648 17.8826 15.3845 17.9761C15.5042 18.0696 15.6436 18.1346 15.7922 18.1662C15.9408 18.1978 16.0946 18.1951 16.242 18.1583Z" fill="#1E76B8"/>
</g>
<defs>
<clipPath id="clip0">
<rect width="17" height="19.9988" fill="white" transform="translate(0 7)"/>
</clipPath>
</defs>
</svg>
